<svg width="360" height="360" viewBox="0 0 360 360" fill="none" xmlns="http://www.w3.org/2000/svg">
<g clip-path="url(#clip0_256_16)">
<path d="M180.033 1.19781e-05C144.423 -0.0129749 109.609 10.5347 79.9941 30.3091C50.3792 50.0835 27.2938 78.1962 13.6574 111.092C0.0211164 143.987 -3.5535 180.188 3.38569 215.115C10.3249 250.043 27.4662 282.127 52.6416 307.312C77.817 332.497 109.896 349.65 144.82 356.602C179.745 363.553 215.947 359.992 248.848 346.368C281.748 332.743 309.869 309.668 329.654 280.061C349.44 250.453 360 215.643 360 180.033C360 132.297 341.041 86.5144 307.293 52.7536C273.544 18.9928 227.769 0.0174213 180.033 1.19781e-05ZM180.033 338.596C148.659 338.596 117.99 329.292 91.9036 311.862C65.8173 294.432 45.4855 269.657 33.4793 240.672C21.4731 211.686 18.3317 179.791 24.4524 149.02C30.5731 118.249 45.681 89.9845 67.8656 67.7999C90.0502 45.6153 118.315 30.5074 149.086 24.3867C179.857 18.266 211.752 21.4074 240.737 33.4136C269.723 45.4198 294.497 65.7516 311.928 91.8379C329.358 117.924 338.661 148.593 338.661 179.967C338.661 222.038 321.949 262.386 292.2 292.134C262.452 321.883 222.104 338.596 180.033 338.596Z" fill="#FBBF12"/>
<path d="M190.407 145.957V213.912C190.203 216.428 189.06 218.774 187.204 220.485C185.349 222.196 182.918 223.146 180.394 223.146C177.87 223.146 175.439 222.196 173.584 220.485C171.728 218.774 170.585 216.428 170.381 213.912V145.957C170.585 143.441 171.728 141.094 173.584 139.383C175.439 137.672 177.87 136.722 180.394 136.722C182.918 136.722 185.349 137.672 187.204 139.383C189.06 141.094 190.203 143.441 190.407 145.957Z" fill="#FBBF12"/>
<path d="M245.493 172.548H324.282C322.571 140.111 309.977 109.197 288.533 84.7987C267.09 60.4005 238.048 43.9422 206.099 38.0814V85.7487H258.625V133.482C258.625 138.706 256.55 143.716 252.856 147.41C249.162 151.104 244.152 153.179 238.928 153.179C237.464 140.748 232.091 129.104 223.583 119.923C215.075 110.743 203.872 104.501 191.589 102.097V36.4399C187.846 36.4399 184.235 36.4399 180.427 36.4399C176.619 36.4399 173.008 36.4399 169.396 36.4399V102.097C157.101 104.488 145.883 110.725 137.362 119.906C128.842 129.088 123.459 140.739 121.992 153.179C116.768 153.179 111.758 151.104 108.064 147.41C104.37 143.716 102.294 138.706 102.294 133.482V85.7487H154.82V38.0814C122.871 43.9422 93.8298 60.4005 72.3861 84.7987C50.9424 109.197 38.3481 140.111 36.637 172.548H115.426V187.321H36.637C38.3194 219.781 50.9008 250.725 72.3469 275.15C93.793 299.575 122.85 316.052 154.82 321.919V274.054H101.901V226.453C101.901 221.229 103.976 216.219 107.67 212.525C111.364 208.831 116.374 206.755 121.598 206.755C121.61 207.575 121.72 208.391 121.926 209.185L122.32 211.483C122.237 212.278 122.397 213.079 122.78 213.781C123.305 214.437 123.174 215.357 123.436 216.013C123.699 216.67 123.436 216.013 123.436 216.341C124.029 218.45 124.775 220.513 125.669 222.513L126.653 224.614C126.922 225.373 127.275 226.1 127.704 226.781C127.853 227.122 128.029 227.452 128.229 227.766L128.951 229.276C129.317 229.731 129.646 230.214 129.936 230.72L130.921 232.165C131.127 232.665 131.441 233.113 131.84 233.478C132.173 234.087 132.57 234.659 133.022 235.185C133.401 235.759 133.818 236.308 134.27 236.827L135.386 238.205C135.911 238.731 136.371 239.387 136.962 239.912L138.537 241.554C139.059 242.129 139.63 242.656 140.244 243.13C141.321 244.184 142.461 245.17 143.659 246.084C144.906 247.069 146.154 247.988 147.467 248.842C148.051 249.312 148.691 249.708 149.371 250.024L151.341 251.206C152.664 252.01 154.047 252.712 155.477 253.307L157.578 254.291C161.24 255.794 165.046 256.916 168.937 257.64V323.823C172.548 323.823 176.29 324.217 179.967 324.217C183.692 324.282 187.418 324.151 191.129 323.823V258.165C194.98 257.45 198.743 256.327 202.356 254.817L204.523 253.832C205.953 253.237 207.336 252.535 208.66 251.731C209.352 251.401 210.012 251.005 210.629 250.549C211.332 250.211 211.993 249.792 212.599 249.302C213.847 248.448 215.094 247.594 216.341 246.61C217.589 245.625 218.705 244.705 219.821 243.655C220.4 243.164 220.948 242.637 221.463 242.079L223.039 240.438L224.68 238.665L225.731 237.352L226.978 235.645C227.43 235.141 227.826 234.591 228.16 234.003C228.545 233.627 228.857 233.181 229.079 232.69C229.079 232.231 229.801 231.705 230.064 231.246C230.408 230.789 230.716 230.306 230.983 229.801L231.837 228.291C231.972 227.922 232.148 227.57 232.362 227.241C232.735 226.571 233.042 225.868 233.281 225.14C233.663 224.466 233.992 223.763 234.266 223.039C235.136 220.975 235.839 218.846 236.367 216.67C236.625 215.943 236.823 215.196 236.958 214.437C237.179 213.687 237.333 212.918 237.418 212.139C237.665 211.373 237.819 210.579 237.877 209.776C237.877 208.988 238.205 208.266 238.205 207.412C243.429 207.412 248.44 209.487 252.133 213.181C255.827 216.875 257.903 221.885 257.903 227.109V274.711H206.033V322.51C238.035 316.635 267.116 300.129 288.566 275.664C310.015 251.2 322.577 220.21 324.217 187.715H245.428L245.493 172.548ZM218.443 199.993C218.852 210.18 215.197 220.112 208.284 227.604C201.37 235.097 191.763 239.536 181.576 239.945C171.389 240.355 161.457 236.7 153.964 229.786C146.472 222.873 142.032 213.266 141.623 203.079V159.942C141.214 149.755 144.868 139.823 151.782 132.33C158.696 124.837 168.303 120.398 178.49 119.989C188.677 119.58 198.609 123.234 206.102 130.148C213.594 137.062 218.033 146.669 218.443 156.856V199.993Z" fill="#FBBF12"/>
</g>
<defs>
<clipPath id="clip0_256_16">
<rect width="360" height="360" fill="white"/>
</clipPath>
</defs>
</svg>
