<svg width="174" height="53" viewBox="0 0 174 53" fill="none" xmlns="http://www.w3.org/2000/svg">
<g clip-path="url(#clip0_252_6)">
<path d="M26.5281 1.76344e-06C21.281 -0.00191019 16.1511 1.55095 11.7873 4.46217C7.42349 7.3734 4.02181 11.5122 2.01248 16.3552C0.00314512 21.1981 -0.523581 26.5277 0.498919 31.6697C1.52142 36.8118 4.04721 41.5354 7.75685 45.2432C11.4665 48.9509 16.1933 51.4762 21.3395 52.4997C26.4858 53.5231 31.8202 52.9988 36.6681 50.993C41.516 48.9872 45.6597 45.59 48.5751 41.2311C51.4905 36.8722 53.0466 31.7474 53.0466 26.5048C53.0466 19.477 50.253 12.7368 45.2801 7.7665C40.3072 2.79616 33.5622 0.0025648 26.5281 1.76344e-06ZM26.5281 49.8488C21.9052 49.8488 17.386 48.4791 13.5422 45.913C9.69831 43.3469 6.70239 39.6995 4.93326 35.4322C3.16412 31.1649 2.70124 26.4693 3.60313 21.9391C4.50503 17.4089 6.7312 13.2477 10.0001 9.98165C13.2691 6.71559 17.4339 4.49137 21.9681 3.59026C26.5022 2.68916 31.202 3.15164 35.473 4.91922C39.7441 6.6868 43.3947 9.6801 45.963 13.5206C48.5314 17.3611 49.9023 21.8763 49.9023 26.4952C49.9023 32.6889 47.4397 38.629 43.0562 43.0087C38.6727 47.3883 32.7274 49.8488 26.5281 49.8488Z" fill="#FBBF12"/>
<path d="M28.0567 21.4881V31.4926C28.0267 31.863 27.8582 32.2084 27.5849 32.4603C27.3115 32.7122 26.9532 32.8521 26.5814 32.8521C26.2095 32.8521 25.8512 32.7122 25.5778 32.4603C25.3045 32.2084 25.136 31.863 25.106 31.4926V21.4881C25.136 21.1177 25.3045 20.7722 25.5778 20.5204C25.8512 20.2685 26.2095 20.1286 26.5814 20.1286C26.9532 20.1286 27.3115 20.2685 27.5849 20.5204C27.8582 20.7722 28.0267 21.1177 28.0567 21.4881Z" fill="#FBBF12"/>
<path d="M36.1739 25.4029H47.7835C47.5314 20.6274 45.6756 16.0762 42.5159 12.4842C39.3561 8.89227 35.0768 6.46924 30.369 5.6064V12.6241H38.1088V19.6515C38.1088 20.4205 37.803 21.1581 37.2587 21.702C36.7144 22.2458 35.9762 22.5513 35.2064 22.5513C34.9907 20.7213 34.199 19.0069 32.9454 17.6553C31.6917 16.3038 30.0409 15.3848 28.2309 15.031V5.36475C27.6795 5.36475 27.1474 5.36475 26.5862 5.36475C26.0251 5.36475 25.493 5.36475 24.9609 5.36475V15.031C23.1491 15.383 21.4961 16.3011 20.2406 17.6529C18.9851 19.0046 18.192 20.7199 17.9757 22.5513C17.2059 22.5513 16.4677 22.2458 15.9234 21.702C15.3791 21.1581 15.0733 20.4205 15.0733 19.6515V12.6241H22.8131V5.6064C18.1053 6.46924 13.826 8.89227 10.6663 12.4842C7.50649 16.0762 5.6507 20.6274 5.39856 25.4029H17.0082V27.5778H5.39856C5.64647 32.3567 7.50036 36.9123 10.6605 40.5082C13.8206 44.1041 18.1022 46.5299 22.8131 47.3936V40.3469H15.0152V33.3389C15.0152 32.5698 15.321 31.8322 15.8653 31.2883C16.4096 30.7445 17.1479 30.439 17.9177 30.439C17.9195 30.5597 17.9357 30.6798 17.966 30.7966L18.0241 31.1349C18.0118 31.252 18.0354 31.37 18.0918 31.4733C18.1692 31.5699 18.1499 31.7053 18.1886 31.8019C18.2272 31.8986 18.1886 31.8019 18.1886 31.8502C18.2759 32.1607 18.3858 32.4644 18.5175 32.7589L18.6626 33.0682C18.7023 33.1799 18.7542 33.2869 18.8174 33.3872C18.8394 33.4375 18.8653 33.4859 18.8948 33.5322L19.0012 33.7545C19.0551 33.8215 19.1036 33.8926 19.1464 33.9672L19.2915 34.1798C19.3218 34.2534 19.3681 34.3194 19.4269 34.3731C19.476 34.4628 19.5344 34.547 19.6011 34.6245C19.6569 34.709 19.7183 34.7897 19.7849 34.8661L19.9494 35.0691C20.0268 35.1464 20.0945 35.2431 20.1815 35.3204L20.4137 35.5621C20.4906 35.6467 20.5747 35.7243 20.6653 35.7941C20.8239 35.9492 20.9919 36.0945 21.1684 36.2291C21.3522 36.374 21.536 36.5094 21.7295 36.635C21.8156 36.7042 21.9098 36.7626 22.0101 36.809L22.3003 36.983C22.4953 37.1014 22.6991 37.2048 22.9098 37.2923L23.2194 37.4373C23.7589 37.6585 24.3198 37.8237 24.8931 37.9303V47.6739C25.4252 47.6739 25.9767 47.7319 26.5185 47.7319C27.0674 47.7415 27.6164 47.7222 28.1632 47.6739V38.0076C28.7306 37.9023 29.2851 37.7371 29.8176 37.5147L30.1368 37.3697C30.3476 37.2822 30.5513 37.1788 30.7464 37.0604C30.8484 37.0117 30.9456 36.9535 31.0366 36.8864C31.1401 36.8366 31.2376 36.775 31.3268 36.7027C31.5107 36.577 31.6945 36.4514 31.8783 36.3064C32.0621 36.1614 32.2266 36.0261 32.3911 35.8714C32.4763 35.7991 32.5571 35.7216 32.6329 35.6394L32.8651 35.3978L33.107 35.1368L33.2618 34.9434L33.4456 34.6921C33.5121 34.618 33.5705 34.537 33.6197 34.4505C33.6765 34.395 33.7225 34.3294 33.7552 34.2571C33.7552 34.1895 33.8616 34.1121 33.9003 34.0445C33.951 33.9773 33.9963 33.9062 34.0358 33.8318L34.1615 33.6095C34.1815 33.5552 34.2074 33.5033 34.2389 33.4548C34.2938 33.3563 34.3392 33.2527 34.3744 33.1455C34.4306 33.0463 34.4791 32.9429 34.5195 32.8362C34.6477 32.5325 34.7512 32.2189 34.8291 31.8986C34.8671 31.7916 34.8962 31.6817 34.9162 31.5699C34.9488 31.4594 34.9714 31.3462 34.9839 31.2316C35.0203 31.1187 35.0431 31.0019 35.0516 30.8836C35.0516 30.7676 35.1 30.6613 35.1 30.5356C35.8697 30.5356 36.608 30.8412 37.1523 31.385C37.6966 31.9288 38.0024 32.6664 38.0024 33.4355V40.4435H30.3594V47.4806C35.0748 46.6157 39.36 44.1856 42.5206 40.5839C45.6813 36.9821 47.5323 32.4197 47.7739 27.6358H36.1642L36.1739 25.4029ZM32.1879 29.4434C32.2482 30.9431 31.7097 32.4053 30.691 33.5084C29.6722 34.6115 28.2566 35.265 26.7555 35.3253C25.2545 35.3855 23.791 34.8475 22.6869 33.8296C21.5829 32.8118 20.9287 31.3974 20.8685 29.8977V23.5469C20.8082 22.0472 21.3466 20.585 22.3654 19.4819C23.3841 18.3788 24.7998 17.7253 26.3008 17.665C27.8019 17.6048 29.2654 18.1428 30.3694 19.1607C31.4735 20.1785 32.1276 21.5929 32.1879 23.0926V29.4434Z" fill="#FBBF12"/>
<path d="M60.2833 26.1568C60.2206 23.4766 60.8151 20.8218 62.0151 18.4238C63.1391 16.2695 64.8672 14.4892 66.9879 13.3007C69.3278 12.032 71.9598 11.3987 74.6213 11.4641C77.2761 11.403 79.9008 12.0361 82.2353 13.3007C84.3504 14.4996 86.079 16.277 87.2178 18.4238C88.4517 20.8112 89.0639 23.4707 88.9979 26.1568C89.0621 28.8405 88.457 31.498 87.2371 33.8898C86.1018 36.0441 84.3728 37.8286 82.2546 39.0323C79.9065 40.3178 77.2592 40.9582 74.5826 40.8882C71.9184 40.9569 69.2839 40.3163 66.9492 39.0323C64.8342 37.814 63.1198 36.007 62.0151 33.8318C60.8243 31.4513 60.23 28.8175 60.2833 26.1568ZM68.0231 26.1568C67.9042 28.3546 68.4759 30.5344 69.6581 32.3915C70.23 33.1442 70.9806 33.7425 71.8421 34.1324C72.7036 34.5223 73.6488 34.6914 74.5922 34.6244C75.5385 34.6794 76.4838 34.5019 77.3456 34.1076C78.2074 33.7133 78.9594 33.1142 79.536 32.3625C80.7667 30.5341 81.3741 28.3577 81.2678 26.1568C81.3948 23.9677 80.8148 21.7958 79.6134 19.9608C79.0329 19.2098 78.2768 18.6127 77.4115 18.2217C76.5462 17.8307 75.598 17.6578 74.6503 17.7182C73.7079 17.6519 72.7639 17.8203 71.9027 18.2083C71.0416 18.5964 70.2902 19.1919 69.7162 19.9414C68.5266 21.7885 67.951 23.9637 68.0715 26.1568H68.0231Z" fill="#FBBF12"/>
<path d="M92.7904 40.3952V11.9474H99.2918L108.618 32.8072H107.293L116.581 11.9474H123.043V40.3952H116.271V22.996H118.09L109.973 40.3952H105.774L97.7148 22.9283H99.6498V40.3952H92.7904Z" fill="#24D78F"/>
<path d="M127.6 40.3952V11.9474H148.023V17.6409H134.75V23.083H147.056V28.815H134.75V34.6631H148.023V40.3952H127.6Z" fill="#24D78F"/>
<path d="M157.892 40.3952V17.9599H149.184V11.9474H173.981V17.9599H165.273V40.3952H157.892Z" fill="#24D78F"/>
</g>
<defs>
<clipPath id="clip0_252_6">
<rect width="174" height="53" fill="white"/>
</clipPath>
</defs>
</svg>
