<svg width="99" height="30" viewBox="0 0 99 30" fill="none" xmlns="http://www.w3.org/2000/svg">
<g clip-path="url(#clip0_252_99)">
<path d="M15.0936 9.98174e-07C12.1081 -0.00108124 9.1894 0.877894 6.70655 2.52576C4.2237 4.17362 2.28827 6.51635 1.14502 9.25765C0.00178315 11.9989 -0.297906 15.0157 0.283862 17.9263C0.865629 20.8369 2.30272 23.5106 4.41337 25.6093C6.52403 27.708 9.21344 29.1375 12.1415 29.7168C15.0695 30.2961 18.1046 29.9993 20.8629 28.864C23.6212 27.7286 25.9788 25.8057 27.6376 23.3384C29.2963 20.8711 30.1817 17.9702 30.1817 15.0027C30.1817 11.0247 28.5922 7.20954 25.7628 4.39613C22.9334 1.58273 19.0957 0.00145177 15.0936 9.98174e-07ZM15.0936 28.2163C12.4633 28.2163 9.89205 27.441 7.70502 25.9885C5.518 24.536 3.81342 22.4714 2.80685 20.056C1.80027 17.6405 1.5369 14.9826 2.05005 12.4184C2.5632 9.85411 3.82981 7.49871 5.68972 5.64999C7.54963 3.80128 9.9193 2.54228 12.4991 2.03222C15.0788 1.52217 17.7528 1.78395 20.1829 2.78446C22.613 3.78498 24.6901 5.4793 26.1514 7.65316C27.6127 9.82702 28.3927 12.3828 28.3927 14.9973C28.3927 18.5032 26.9915 21.8655 24.4975 24.3445C22.0034 26.8236 18.6207 28.2163 15.0936 28.2163Z" fill="#FBBF12"/>
<path d="M15.9633 12.1631V17.826C15.9462 18.0357 15.8504 18.2312 15.6948 18.3738C15.5393 18.5164 15.3355 18.5955 15.1239 18.5955C14.9123 18.5955 14.7084 18.5164 14.5529 18.3738C14.3974 18.2312 14.3015 18.0357 14.2844 17.826V12.1631C14.3015 11.9534 14.3974 11.7579 14.5529 11.6153C14.7084 11.4727 14.9123 11.3936 15.1239 11.3936C15.3355 11.3936 15.5393 11.4727 15.6948 11.6153C15.8504 11.7579 15.9462 11.9534 15.9633 12.1631Z" fill="#FBBF12"/>
<path d="M20.5816 14.379H27.1871C27.0437 11.6758 25.9878 9.0997 24.19 7.06652C22.3922 5.03334 19.9574 3.66181 17.2789 3.17341V7.14569H21.6825V11.1234C21.6825 11.5588 21.5086 11.9763 21.1989 12.2841C20.8892 12.5919 20.4691 12.7649 20.0312 12.7649C19.9084 11.729 19.458 10.7586 18.7447 9.99356C18.0314 9.22852 17.0922 8.70837 16.0624 8.50808V3.03662C15.7486 3.03662 15.4458 3.03662 15.1266 3.03662C14.8073 3.03662 14.5046 3.03662 14.2018 3.03662V8.50808C13.171 8.70733 12.2305 9.22703 11.5162 9.99215C10.8018 10.7573 10.3505 11.7282 10.2275 12.7649C9.78952 12.7649 9.36949 12.5919 9.0598 12.2841C8.7501 11.9763 8.57612 11.5588 8.57612 11.1234V7.14569H12.9798V3.17341C10.3012 3.66181 7.86647 5.03334 6.06867 7.06652C4.27087 9.0997 3.21499 11.6758 3.07153 14.379H9.67704V15.61H3.07153C3.21258 18.3151 4.26738 20.8937 6.06538 22.9291C7.86338 24.9645 10.2995 26.3377 12.9798 26.8265V22.8378H8.54309V18.871C8.54309 18.4357 8.71708 18.0182 9.02677 17.7103C9.33646 17.4025 9.7565 17.2296 10.1945 17.2296C10.1955 17.2979 10.2047 17.3659 10.222 17.432L10.255 17.6235C10.248 17.6898 10.2615 17.7566 10.2936 17.815C10.3376 17.8697 10.3266 17.9463 10.3486 18.0011C10.3706 18.0558 10.3486 18.0011 10.3486 18.0284C10.3983 18.2042 10.4608 18.3761 10.5358 18.5427L10.6183 18.7178C10.6409 18.7811 10.6704 18.8416 10.7064 18.8984C10.7189 18.9268 10.7336 18.9543 10.7504 18.9804L10.811 19.1063C10.8416 19.1442 10.8692 19.1845 10.8936 19.2267L10.9761 19.347C10.9934 19.3887 11.0197 19.4261 11.0532 19.4565C11.0811 19.5072 11.1143 19.5549 11.1523 19.5987C11.184 19.6466 11.219 19.6923 11.2569 19.7355L11.3504 19.8504C11.3945 19.8942 11.433 19.9489 11.4825 19.9927L11.6147 20.1295C11.6584 20.1773 11.7063 20.2213 11.7578 20.2608C11.848 20.3486 11.9436 20.4308 12.044 20.507C12.1486 20.5891 12.2532 20.6657 12.3633 20.7368C12.4123 20.7759 12.4659 20.809 12.5229 20.8353L12.688 20.9338C12.799 21.0008 12.9149 21.0593 13.0348 21.1088L13.211 21.1909C13.518 21.3161 13.8371 21.4096 14.1633 21.47V26.9852C14.466 26.9852 14.7798 27.018 15.088 27.018C15.4003 27.0235 15.7127 27.0125 16.0238 26.9852V21.5137C16.3466 21.4541 16.6622 21.3606 16.9651 21.2347L17.1468 21.1526C17.2667 21.1031 17.3826 21.0446 17.4936 20.9775C17.5516 20.95 17.6069 20.917 17.6587 20.879C17.7176 20.8509 17.773 20.816 17.8238 20.7751C17.9284 20.704 18.033 20.6328 18.1376 20.5508C18.2422 20.4687 18.3358 20.3921 18.4293 20.3045C18.4779 20.2636 18.5238 20.2197 18.5669 20.1732L18.6991 20.0364L18.8367 19.8887L18.9247 19.7793L19.0293 19.637C19.0672 19.5951 19.1004 19.5492 19.1284 19.5002C19.1607 19.4688 19.1869 19.4317 19.2055 19.3908C19.2055 19.3525 19.266 19.3087 19.288 19.2704C19.3169 19.2324 19.3427 19.1922 19.3651 19.1501L19.4367 19.0242C19.448 18.9935 19.4628 18.9641 19.4807 18.9367C19.512 18.8809 19.5378 18.8223 19.5578 18.7616C19.5898 18.7054 19.6174 18.6469 19.6403 18.5865C19.7133 18.4146 19.7722 18.2371 19.8165 18.0558C19.8381 17.9952 19.8547 17.933 19.866 17.8697C19.8846 17.8072 19.8975 17.7431 19.9046 17.6782C19.9253 17.6144 19.9382 17.5482 19.9431 17.4813C19.9431 17.4156 19.9706 17.3554 19.9706 17.2843C20.4086 17.2843 20.8286 17.4572 21.1383 17.7651C21.448 18.0729 21.622 18.4904 21.622 18.9257V22.8925H17.2734V26.8758C19.9563 26.3862 22.3944 25.0107 24.1927 22.972C25.991 20.9333 27.0442 18.3508 27.1816 15.6429H20.5761L20.5816 14.379ZM18.3137 16.666C18.348 17.5149 18.0417 18.3426 17.462 18.967C16.8824 19.5914 16.077 19.9613 15.2229 19.9954C14.3689 20.0295 13.5362 19.725 12.908 19.1488C12.2798 18.5727 11.9077 17.7721 11.8734 16.9232V13.3284C11.8391 12.4795 12.1454 11.6518 12.7251 11.0275C13.3047 10.4031 14.1101 10.0332 14.9642 9.99905C15.8182 9.96495 16.6509 10.2695 17.2791 10.8456C17.9073 11.4218 18.2794 12.2224 18.3137 13.0713V16.666Z" fill="#FBBF12"/>
<path d="M34.2989 14.8058C34.2632 13.2887 34.6015 11.7859 35.2843 10.4286C35.9238 9.20922 36.907 8.20151 38.1136 7.52875C39.4449 6.8106 40.9425 6.45214 42.4567 6.48918C43.9672 6.45457 45.4606 6.81294 46.7889 7.52875C47.9923 8.20738 48.9758 9.21343 49.6237 10.4286C50.3258 11.78 50.6741 13.2853 50.6366 14.8058C50.6731 16.3249 50.3288 17.8291 49.6347 19.183C48.9888 20.4024 48.005 21.4124 46.7999 22.0938C45.4639 22.8214 43.9576 23.1839 42.4347 23.1443C40.9189 23.1832 39.42 22.8206 38.0916 22.0938C36.8882 21.4042 35.9128 20.3814 35.2843 19.1501C34.6068 17.8027 34.2686 16.3118 34.2989 14.8058ZM38.7026 14.8058C38.635 16.0498 38.9602 17.2837 39.6329 18.3349C39.9582 18.7609 40.3853 19.0996 40.8755 19.3203C41.3657 19.541 41.9035 19.6367 42.4402 19.5988C42.9786 19.6299 43.5165 19.5294 44.0068 19.3062C44.4971 19.0831 44.925 18.7439 45.2531 18.3185C45.9533 17.2835 46.2989 16.0516 46.2384 14.8058C46.3106 13.5667 45.9807 12.3373 45.2971 11.2986C44.9668 10.8735 44.5366 10.5355 44.0443 10.3142C43.5519 10.0929 43.0125 9.99505 42.4733 10.0292C41.9371 9.99168 41.4 10.087 40.91 10.3066C40.42 10.5263 39.9925 10.8634 39.6659 11.2876C38.9891 12.3332 38.6616 13.5644 38.7301 14.8058H38.7026Z" fill="#FBBF12"/>
<path d="M52.7944 22.8652V6.7627H56.4935L61.7999 18.5701H61.0458L66.3302 6.7627H70.0073V22.8652H66.1541V13.0166H67.1889L62.5706 22.8652H60.1816L55.5963 12.9783H56.6972V22.8652H52.7944Z" fill="#24D78F"/>
<path d="M72.6001 22.8652V6.7627H84.2203V9.98538H76.668V13.0658H83.6698V16.3104H76.668V19.6206H84.2203V22.8652H72.6001Z" fill="#24D78F"/>
<path d="M89.8347 22.8652V10.1659H84.8806V6.7627H98.9889V10.1659H94.0347V22.8652H89.8347Z" fill="#24D78F"/>
</g>
<defs>
<clipPath id="clip0_252_99">
<rect width="99" height="30" fill="white"/>
</clipPath>
</defs>
</svg>
